<?xml version="1.0" encoding="UTF-8" standalone="no"?>
<!-- Created with Inkscape (http://www.inkscape.org/) -->

<svg
   xmlns:dc="http://purl.org/dc/elements/1.1/"
   xmlns:cc="http://creativecommons.org/ns#"
   xmlns:rdf="http://www.w3.org/1999/02/22-rdf-syntax-ns#"
   xmlns:svg="http://www.w3.org/2000/svg"
   xmlns="http://www.w3.org/2000/svg"
   xmlns:xlink="http://www.w3.org/1999/xlink"
   xmlns:sodipodi="http://sodipodi.sourceforge.net/DTD/sodipodi-0.dtd"
   xmlns:inkscape="http://www.inkscape.org/namespaces/inkscape"
   width="107.80944mm"
   height="51.937653mm"
   viewBox="0 0 382.00193 184.03105"
   id="svg2"
   version="1.1"
   inkscape:version="0.92.3 (2405546, 2018-03-11)"
   sodipodi:docname="logo.svg"
   inkscape:export-filename="D:\PJ\GITHUB\LaserGRBL\logo.png"
   inkscape:export-xdpi="93.07428"
   inkscape:export-ydpi="93.07428">
  <defs
     id="defs4">
    <inkscape:path-effect
       effect="powerstroke"
       id="path-effect4162"
       is_visible="true"
       offset_points="0,0.5"
       sort_points="true"
       interpolator_type="Linear"
       interpolator_beta="0.2"
       start_linecap_type="zerowidth"
       linejoin_type="round"
       miter_limit="4"
       end_linecap_type="zerowidth"
       cusp_linecap_type="round" />
  </defs>
  <sodipodi:namedview
     id="base"
     pagecolor="#ffffff"
     bordercolor="#666666"
     borderopacity="1.0"
     inkscape:pageopacity="1"
     inkscape:pageshadow="2"
     inkscape:zoom="1.979899"
     inkscape:cx="174.4455"
     inkscape:cy="141.28829"
     inkscape:document-units="px"
     inkscape:current-layer="layer1"
     showgrid="false"
     fit-margin-top="0"
     fit-margin-left="0"
     fit-margin-right="0"
     fit-margin-bottom="0"
     inkscape:window-width="1920"
     inkscape:window-height="1017"
     inkscape:window-x="-8"
     inkscape:window-y="-8"
     inkscape:window-maximized="1"
     inkscape:snap-global="false" />
  <metadata
     id="metadata7">
    <rdf:RDF>
      <cc:Work
         rdf:about="">
        <dc:format>image/svg+xml</dc:format>
        <dc:type
           rdf:resource="http://purl.org/dc/dcmitype/StillImage" />
        <dc:title />
      </cc:Work>
    </rdf:RDF>
  </metadata>
  <g
     inkscape:label="Livello 1"
     inkscape:groupmode="layer"
     id="layer1"
     transform="translate(-45.782467,-727.59283)">
    <path
       sodipodi:type="star"
       style="opacity:1;fill:#ff0000;fill-opacity:1;stroke:none;stroke-width:0.479;stroke-linecap:round;stroke-miterlimit:4;stroke-dasharray:none;stroke-dashoffset:0;stroke-opacity:1"
       id="path4158"
       sodipodi:sides="7"
       sodipodi:cx="104.5508"
       sodipodi:cy="854.37225"
       sodipodi:r1="58.76865"
       sodipodi:r2="20.277712"
       sodipodi:arg1="0.63891399"
       sodipodi:arg2="1.0877129"
       inkscape:flatsided="false"
       inkscape:rounded="-1.04083e-017"
       inkscape:randomized="0"
       d="m 151.72697,889.41741 -37.75693,-17.08789 -7.40479,40.77685 -10.181212,-40.17368 -36.497429,19.63465 25.061166,-33.00788 -38.106765,-16.29283 41.431978,-0.98646 -11.02093,-39.95149 26.603662,31.77778 24.36389,-33.52585 -8.25775,40.6127 41.40221,-1.85458 -36.90092,18.86544 z"
       inkscape:transform-center-x="2.8677523"
       inkscape:transform-center-y="-0.043277006"
       transform="matrix(0.9813517,-0.19222083,0.19222083,0.9813517,-162.27845,36.029435)" />
    <rect
       style="opacity:1;fill:#ff0000;fill-opacity:1;stroke:#ffffff;stroke-width:3;stroke-linecap:round;stroke-miterlimit:4;stroke-dasharray:none;stroke-dashoffset:0;stroke-opacity:1"
       id="rect4164"
       width="311.12698"
       height="14.142136"
       x="115.15739"
       y="847.30121"
       ry="7.0710678"
       rx="7.0710678" />
    <text
       xml:space="preserve"
       style="font-style:normal;font-weight:normal;font-size:61.71943665px;line-height:0%;font-family:sans-serif;letter-spacing:0px;word-spacing:0px;fill:#000080;fill-opacity:1;stroke:none;stroke-width:5.14328671px;stroke-linecap:butt;stroke-linejoin:miter;stroke-opacity:1"
       x="504.93506"
       y="784.02472"
       id="text4166"
       transform="matrix(0.92883327,0,-0.29210117,1.0766195,0,0)"><tspan
         sodipodi:role="line"
         id="tspan4168"
         x="504.93506"
         y="784.02472"
         style="font-style:normal;font-variant:normal;font-weight:normal;font-stretch:normal;font-family:'Eras Bold ITC';-inkscape-font-specification:'Eras Bold ITC';fill:#000080;fill-opacity:1;stroke-width:5.14328671px">GRBL</tspan></text>
    <g
       transform="scale(1.3100825,0.76331071)"
       style="font-style:normal;font-weight:normal;font-size:61.83285141px;line-height:125%;font-family:sans-serif;letter-spacing:0px;word-spacing:0px;fill:#ff0000;fill-opacity:1;stroke:#ffffff;stroke-width:2.5999999;stroke-linecap:butt;stroke-linejoin:miter;stroke-miterlimit:4;stroke-dasharray:none;stroke-opacity:1"
       id="text4188">
      <path
         d="m 141.92156,1172.8437 q -2.5965,0 -6.76297,-0.1208 -5.43453,-0.1207 -6.76297,-0.1509 l -9.02735,-0.1208 q -1.35863,0.03 -3.89475,-0.1208 -0.87556,-0.1509 -0.87556,-0.9359 0,-3.2909 0.0906,-9.8425 0.12076,-6.5819 0.12076,-9.8728 0,-3.5022 -0.21134,-10.4765 -0.21134,-7.0045 -0.21134,-10.5068 0,-0.6642 0.90575,-0.6642 0.90576,0 2.68708,0.091 1.81151,0.091 2.68707,0.091 0.99633,0 2.9588,-0.091 1.96247,-0.1208 2.9588,-0.1208 0.45287,0 0.42268,0.5737 l -0.0302,0.3924 q -0.3623,5.6761 -0.81518,17.0584 l -0.0302,7.9707 q 0,3.8645 0.0302,5.6458 0.0302,0.3623 0.0604,0.7246 0.0302,0.3623 0.45288,0.4529 0.0302,0 0.78499,0 2.71726,0 8.1216,-0.2717 5.43453,-0.3019 8.15179,-0.3019 0.81518,0 0.81518,0.6944 0,5.1628 -0.7548,8.9066 -0.15096,0.785 -0.63402,0.9359 -0.15096,0.06 -1.23787,0.06 z"
         style="font-style:normal;font-variant:normal;font-weight:bold;font-stretch:normal;font-size:61.83285141px;line-height:125%;font-family:'Berlin Sans FB Demi';-inkscape-font-specification:'Berlin Sans FB Demi, Bold';text-align:start;writing-mode:lr-tb;text-anchor:start;fill:#ff0000;stroke:#ffffff;stroke-width:2.5999999;stroke-miterlimit:4;stroke-dasharray:none;stroke-opacity:1"
         id="path4143" />
      <path
         d="m 187.81313,1171.5756 q 0,0.5435 -0.75479,0.7548 -0.90576,0.2416 -5.61568,0.2416 -4.31743,0 -5.5553,-0.2416 -1.02652,-0.2113 -1.29825,-1.3586 -1.02652,-4.3476 -1.60016,-4.6495 -0.48307,-0.2114 -8.09141,-0.2114 -5.13261,0 -5.46472,0.2718 -0.51326,0.483 -1.14729,3.2305 -0.57364,2.5059 -1.38882,2.7172 -1.02653,0.2416 -6.88374,0.2416 -4.61935,0 -4.61935,-0.8756 0,-0.785 6.82335,-19.2926 7.397,-20.0171 8.03103,-22.0098 0.3623,-1.1473 0.84537,-1.1473 0.81518,0 2.50592,0.151 1.72093,0.1509 2.56631,0.1509 0.81517,0 2.38515,-0.091 1.60017,-0.1208 2.38515,-0.1208 0.57365,0 1.05672,0.9963 1.4794,3.1702 8.63486,21.7381 7.18565,18.6888 7.18565,19.5039 z m -21.406,-27.5047 q -0.63403,1.3284 -2.14362,5.7666 -1.63036,4.71 -1.63036,5.5251 0,0.5435 1.81151,0.6039 0.93595,0.06 3.07957,0.06 1.99266,0 2.204,-0.4831 0.0604,-0.151 0.0604,-0.4227 0,-0.9963 -1.38882,-5.4949 -1.35863,-4.3476 -1.99266,-5.5553 z"
         style="font-style:normal;font-variant:normal;font-weight:bold;font-stretch:normal;font-size:61.83285141px;line-height:125%;font-family:'Berlin Sans FB Demi';-inkscape-font-specification:'Berlin Sans FB Demi, Bold';text-align:start;writing-mode:lr-tb;text-anchor:start;fill:#ff0000;stroke:#ffffff;stroke-width:2.5999999;stroke-miterlimit:4;stroke-dasharray:none;stroke-opacity:1"
         id="path4145" />
      <path
         d="m 211.45332,1158.4422 q 0,6.1289 -5.1628,10.5068 -4.52877,3.8645 -11.02001,4.9212 -0.24154,0.03 -0.3925,0.03 -0.69441,0 -3.07956,-4.2268 -2.38516,-4.2571 -2.38516,-5.193 0,-0.3321 0.45288,-0.4227 4.37782,-0.9963 5.79683,-1.6908 3.13995,-1.5699 3.13995,-4.6495 0,-1.9625 -2.05304,-4.3778 -3.56264,-4.1061 -3.86456,-4.559 -2.08323,-3.1399 -2.08323,-6.9441 0,-5.5251 5.10242,-9.1783 4.16647,-3.0192 10.23502,-3.9249 0.33211,-0.03 0.51326,-0.03 0.45288,0 0.72461,0.7246 0.78499,2.204 3.65321,7.9706 0.0906,0.1812 0.0906,0.3019 0,0.5133 -0.54345,0.5133 -0.24153,0 -0.81518,-0.091 -0.57364,-0.091 -0.87556,-0.091 -2.17381,0 -3.80417,0.9964 -1.96247,1.1473 -1.96247,3.2003 0,1.8417 2.17381,4.5288 3.83436,4.8307 4.01551,5.0722 2.14362,3.3211 2.14362,6.612 z"
         style="font-style:normal;font-variant:normal;font-weight:bold;font-stretch:normal;font-size:61.83285141px;line-height:125%;font-family:'Berlin Sans FB Demi';-inkscape-font-specification:'Berlin Sans FB Demi, Bold';text-align:start;writing-mode:lr-tb;text-anchor:start;fill:#ff0000;stroke:#ffffff;stroke-width:2.5999999;stroke-miterlimit:4;stroke-dasharray:none;stroke-opacity:1"
         id="path4147" />
      <path
         d="m 247.50236,1162.9408 c 0,0.8655 -0.17109,2.4556 -0.51326,4.7703 -0.3623,2.516 -0.68435,4.0155 -0.96614,4.4986 -0.24153,0.3824 -0.57364,0.5736 -0.99633,0.5736 -0.18115,0 -0.48306,-0.03 -0.90575,-0.091 -1.46934,-0.2013 -5.75658,-0.3019 -12.86172,-0.3019 -1.54985,0 -3.85449,-0.01 -6.91393,-0.03 -3.05943,-0.02 -5.35401,-0.03 -6.88373,-0.03 -0.66422,0 -0.99633,-0.2918 -0.99633,-0.8755 0,-2.2543 0.12077,-5.6358 0.3623,-10.1445 0.26166,-4.5287 0.39249,-7.9203 0.39249,-10.1746 0,-2.2946 -0.12077,-6.5718 -0.3623,-12.8315 -0.0604,-1.6103 -0.1711,-4.0156 -0.33211,-7.2159 l -0.0302,-0.4227 c -0.0403,-0.4629 0.21133,-0.6944 0.7548,-0.6944 1.48946,0 3.72365,0.04 6.70258,0.1208 2.99905,0.081 5.24331,0.1208 6.73278,0.1208 1.46933,0 3.6834,-0.04 6.6422,-0.1208 2.9588,-0.081 5.17287,-0.1208 6.6422,-0.1208 1.04665,0 1.65048,0.3925 1.81151,1.1775 0.10064,0.4629 0.2516,1.8719 0.45288,4.2269 0.22141,2.3348 0.33211,3.7538 0.33211,4.257 0,0.4227 -0.20128,0.634 -0.60384,0.634 -0.12077,0 -0.33211,-0.01 -0.63403,-0.03 -5.35401,-0.4428 -10.16458,-0.6642 -14.43169,-0.6642 -1.06678,0 -1.72094,0.2516 -1.96247,0.7548 -0.10064,0.2415 -0.15096,1.0165 -0.15096,2.3248 0,1.3687 0.20128,2.2744 0.60384,2.7172 0.34217,0.3825 0.99633,0.5737 1.96247,0.5737 0.20128,0 0.59377,-0.01 1.17748,-0.03 0.58371,-0.04 1.06678,-0.06 1.44921,-0.06 2.53611,0 5.10242,-0.07 7.69891,-0.2113 0.22141,-0.02 0.77492,-0.07 1.66055,-0.151 0.68435,-0.081 1.2278,-0.1208 1.63036,-0.1208 1.38583,0.5134 0.29906,4.1767 0.18115,5.3138 -0.16102,1.6103 -0.24153,3.2205 -0.24153,4.8307 0,0.4025 -0.29186,0.6038 -0.87557,0.6038 l -2.71726,-0.3019 c -1.14729,-0.1207 -3.76392,-0.1811 -7.84988,-0.1811 l -3.20033,0 c -0.82524,0 -1.30831,0.2013 -1.44921,0.6038 -0.0201,0.1007 -0.0302,0.7246 -0.0302,1.8719 0,1.5297 0.10064,2.516 0.30192,2.9588 0.34217,0.7649 1.63036,1.2177 3.86455,1.3586 l 4.40801,0 c 1.06678,0 2.64682,-0.091 4.74012,-0.2717 2.11343,-0.2013 3.69346,-0.3019 4.74011,-0.3019 0.44281,0 0.66422,0.3623 0.66422,1.0869 z"
         style="font-style:normal;font-variant:normal;font-weight:bold;font-stretch:normal;font-size:61.83285141px;line-height:125%;font-family:'Berlin Sans FB Demi';-inkscape-font-specification:'Berlin Sans FB Demi, Bold';text-align:start;writing-mode:lr-tb;text-anchor:start;fill:#ff0000;stroke:#ffffff;stroke-width:2.5999999;stroke-miterlimit:4;stroke-dasharray:none;stroke-opacity:1"
         id="path4149"
         inkscape:connector-curvature="0"
         sodipodi:nodetypes="cccscsssscscccscsssccsscscscscsccccsccsscsccscscc" />
      <path
         d="m 287.47634,1172.0285 c 0,0.1409 -0.20128,0.2416 -0.60384,0.3019 -0.76486,0.1208 -2.68707,0.1812 -5.76664,0.1812 -2.63675,0 -4.42813,-0.06 -5.37414,-0.1812 -0.44281,-0.061 -0.69441,-0.111 -0.7548,-0.1509 -0.12077,-0.061 -0.26166,-0.262 -0.42268,-0.6039 -0.30192,-0.7849 -0.74473,-1.9523 -1.32844,-3.5022 -0.78499,-2.0128 -2.01279,-4.9817 -3.68341,-8.9066 -2.07733,-1.9722 -3.81388,-1.2387 -5.61567,-1.2382 -0.30192,0 -0.45288,0.5133 -0.45288,1.5398 0,1.3687 0.12077,3.4117 0.3623,6.129 0.26166,2.7173 0.39249,4.7602 0.39249,6.1289 0,0.3422 -0.0906,0.5435 -0.27172,0.6038 l -0.84537,0.06 c -1.18755,0.081 -3.03931,0.1208 -5.5553,0.1208 -2.87829,0 -4.60928,-0.06 -5.19299,-0.1812 -0.58371,-0.1207 -0.87557,-0.4327 -0.87557,-0.9359 0,-2.2141 0.10064,-5.5553 0.30192,-10.0237 0.22141,-4.4684 0.33211,-7.8197 0.33211,-10.0539 0,-8.5141 -0.19121,-15.1563 -0.57364,-19.9266 l -0.0302,-0.4227 c -0.0201,-0.3421 0.29185,-0.5736 0.93594,-0.6944 0.66422,-0.1207 3.74379,-0.2415 9.2387,-0.3623 3.72366,-0.081 6.69252,-0.1207 8.90659,-0.1207 4.58915,0 8.33294,1.0366 11.23136,3.1097 3.28084,2.3349 4.92126,5.7063 4.92126,10.1143 0,2.9387 -0.42268,5.2836 -1.26805,7.0347 -0.84537,1.7511 -2.40529,3.4519 -4.67974,5.1024 -1.61963,1.5963 2.74184,7.9734 2.98899,8.4839 2.45561,5.0722 3.68341,7.87 3.68341,8.3933 z m -12.68057,-27.082 c 0,-2.4556 -0.80511,-4.1564 -2.41534,-5.1025 -1.24793,-0.7246 -3.20034,-1.0869 -5.85722,-1.0869 -1.91215,0 -2.9286,0.2919 -3.04937,0.8756 -0.12077,0.6843 -0.18115,2.6569 -0.18115,5.9176 0,0.4629 0.0101,1.1473 0.0302,2.053 0.0201,0.9058 0.0302,1.5801 0.0302,2.0229 0,0.1007 0.32205,0.2013 0.96614,0.3019 1.2278,0.1811 2.51598,0.2717 3.86455,0.2717 4.40801,0 6.61201,-1.7511 6.61201,-5.2533 z"
         style="font-style:normal;font-variant:normal;font-weight:bold;font-stretch:normal;font-size:61.83285141px;line-height:125%;font-family:'Berlin Sans FB Demi';-inkscape-font-specification:'Berlin Sans FB Demi, Bold';text-align:start;writing-mode:lr-tb;text-anchor:start;fill:#ff0000;stroke:#ffffff;stroke-width:2.5999999;stroke-miterlimit:4;stroke-dasharray:none;stroke-opacity:1"
         id="path4151"
         inkscape:connector-curvature="0"
         sodipodi:nodetypes="ccsccccccscsccscscsccccscssccccccscssscscc" />
    </g>
    <path
       style="fill:#000080;fill-opacity:1"
       d="m 399.82631,893.98828 c -2.95706,-0.20973 -5.6408,-1.30143 -7.98873,-3.24969 -0.56821,-0.47148 -1.57036,-1.48838 -1.94343,-1.97203 l -0.27337,-0.35438 -1.85981,-3.6e-4 c -1.05466,-2.2e-4 -1.99353,-0.0167 -2.16868,-0.038 -1.17074,-0.14285 -2.4325,-0.71714 -3.4434,-1.5673 -1.51316,-1.27253 -2.39947,-2.84614 -2.57225,-4.5669 -0.0232,-0.23104 -0.0325,-1.4891 -0.0245,-3.34111 l 0.0126,-2.97054 0.0953,-0.3827 c 0.34025,-1.36612 1.0318,-2.56822 2.08766,-3.62893 0.50106,-0.50334 0.83817,-0.78405 1.33067,-1.10797 0.68141,-0.44817 1.42187,-0.76211 2.16329,-0.9172 0.35177,-0.0736 0.45997,-0.077 2.21081,-0.0704 l 1.84095,0.007 0.17291,-0.23549 c 0.48285,-0.65762 1.37689,-1.57514 2.18077,-2.23805 1.87375,-1.54517 4.10768,-2.59479 6.41152,-3.01247 0.91229,-0.16539 1.5141,-0.21668 2.55138,-0.21743 0.97369,-7e-4 1.39532,0.0294 2.29624,0.16395 2.71477,0.40547 5.39163,1.65556 7.70882,3.60005 0.42399,0.35581 1.34477,1.25617 1.60883,1.57317 l 0.20577,0.24702 1.93566,0.0155 c 1.58363,0.0127 1.98301,0.0259 2.19596,0.0728 1.12534,0.248 2.52028,1.04922 3.34051,1.91872 0.96989,1.02814 1.71397,2.37416 2.01633,3.64749 0.0595,0.2505 0.066,0.57676 0.0781,3.89997 0.009,2.56316 9.2e-4,3.7121 -0.028,3.91819 -0.13488,0.95597 -0.67029,1.84682 -1.8567,3.0893 -1.00776,1.05539 -2.07586,1.67034 -3.39136,1.95253 -0.60964,0.13078 -1.00541,0.15199 -2.88708,0.15465 l -1.83296,0.003 -0.27336,0.34906 c -0.63702,0.8134 -1.70718,1.81725 -2.73363,2.56425 -1.74239,1.26804 -3.80254,2.15455 -5.83172,2.50949 -0.99976,0.17487 -2.39148,0.25218 -3.33502,0.18526 z m 16.72976,-7.08258 c 0.82081,-0.2565 1.5557,-0.70283 2.35091,-1.42783 0.93852,-0.85565 1.46823,-1.80953 1.6594,-2.98817 0.0832,-0.5128 0.0787,-6.34801 -0.006,-6.83783 -0.32174,-1.87752 -1.82674,-3.60123 -3.68907,-4.22517 -0.73662,-0.24678 -0.49988,-0.23705 -5.76506,-0.23705 l -4.7565,0 -0.38271,0.10589 c -0.93868,0.25971 -1.60791,0.67207 -2.42484,1.49408 -0.8579,0.86323 -1.41078,1.73986 -1.66105,2.6337 -0.0787,0.2813 -0.0805,0.33915 -0.10612,3.58448 -0.0278,3.51389 -0.0271,3.50146 -0.21507,4.17333 -0.33575,1.2003 -1.10794,2.41917 -2.18874,3.45484 l -0.40856,0.3915 8.63229,-0.01 8.63228,-0.01 0.32804,-0.10251 z m -1.87708,-6.78622 0,-3.37147 1.12989,0 1.1299,0 0,3.37147 0,3.37147 -1.1299,0 -1.12989,0 z m -9.6588,-1.33036 0,-4.62894 4.04576,0 4.04576,0 0,1.09345 0,1.09345 -2.77007,0 -2.77007,0 0,1.09344 0,1.09346 2.46026,0 2.46026,0 0,1.03877 0,1.03878 -2.44204,0 -2.44203,0 0,1.40326 0,1.40326 -1.29392,0 -1.29391,0 z m 10.34394,-2.84045 c -0.40118,-0.12827 -0.67221,-0.34157 -0.83688,-0.65859 -0.0689,-0.13255 -0.085,-0.21995 -0.0843,-0.45561 9.3e-4,-0.33098 0.0455,-0.44206 0.27874,-0.69507 0.30517,-0.33106 0.68461,-0.46903 1.22888,-0.44682 0.29811,0.0122 0.38639,0.0312 0.59179,0.12752 0.75052,0.35205 0.97621,1.09276 0.5108,1.67641 -0.35183,0.44123 -1.09826,0.64105 -1.68902,0.45216 z m -27.57161,7.51494 c 0.009,-0.015 0.25207,-1.21905 0.53977,-2.6756 0.2877,-1.45654 0.52703,-2.64446 0.53185,-2.63981 0.005,0.005 0.23026,1.17177 0.50098,2.5936 0.2707,1.42182 0.5008,2.62204 0.5113,2.66714 l 0.0191,0.082 1.21714,0 1.21715,0 0.0932,-0.39182 c 0.27846,-1.17058 2.0636,-8.84461 2.0636,-8.87114 0,-0.0173 -0.58227,-0.0314 -1.29392,-0.0314 -0.71166,0 -1.29391,0.006 -1.29391,0.0144 0,0.008 -0.16402,1.11758 -0.36449,2.46586 -0.20046,1.34828 -0.36577,2.4776 -0.36736,2.50961 -0.003,0.0475 -0.006,0.0485 -0.0237,0.006 -0.0115,-0.0291 -0.25323,-1.169 -0.53728,-2.53316 l -0.51644,-2.48028 -1.17031,-0.01 c -1.09123,-0.009 -1.17161,-0.006 -1.18967,0.0546 -0.0106,0.0354 -0.24225,1.155 -0.51468,2.4881 -0.27243,1.33309 -0.50738,2.45414 -0.52211,2.49122 -0.0158,0.0397 -0.18672,-0.97588 -0.41582,-2.47035 -0.21397,-1.39577 -0.3989,-2.55373 -0.41095,-2.57324 -0.0323,-0.0523 -2.60545,-0.0478 -2.60545,0.005 0,0.0342 2.01229,8.73863 2.12047,9.1723 l 0.0387,0.1549 1.17809,0 c 0.64794,0 1.18559,-0.0123 1.19476,-0.0273 z m 10.2296,-3.34413 0,-3.37147 -1.14813,0 -1.14811,0 0,3.37147 0,3.37147 1.14811,0 1.14813,0 z m -0.68084,-4.15494 c 0.4303,-0.11207 0.75555,-0.3579 0.92102,-0.69609 0.0832,-0.16997 0.0939,-0.23111 0.0812,-0.46077 -0.0247,-0.44766 -0.22942,-0.74428 -0.66053,-0.95731 -0.94214,-0.46554 -2.07485,3.9e-4 -2.19876,0.90445 -0.0678,0.49466 0.38393,1.03834 1.00705,1.21199 0.22781,0.0635 0.60134,0.0625 0.84999,-0.002 z"
       id="path4152"
       inkscape:connector-curvature="0"
       sodipodi:nodetypes="csscccsccccsscccsssscsscccscscssccssscccsscsscssccccccccccccccccccccccccccccccccccccccccccsccscccscsccccsssssccscccscscsccsccccccccccccccscccc" />
    <g
       transform="matrix(0.52366542,0,0,0.52366542,82.554915,730.21421)"
       id="g204">
      <path
         style="fill:#87b1d0"
         inkscape:connector-curvature="0"
         d="m 252.65,57.4 q 3.3,0.3 4.85,1.05 1.1,0.55 2.25,1.95 3.2,0.5 11.35,-2.2 4.25,-1.4 12.55,-4.75 2.25,-0.9 3.6,-0.65 1.35,0.25 2.4,1.85 1.4,2.25 0.9,5.3 -0.25,1.75 -1.6,5.1 -7.5,19.3 -7.65,30.15 5.9,6.2 5.9,10.35 0,2.05 -2.7,6.55 l -4.95,7.4 q 3,-0.2 7.5,5.05 1.6,1.9 5.05,6.95 1,1.45 0.05,3.3 -0.6,1.2 -2.35,2.85 10.7,17.95 14.5,40.8 3.7,21.9 -1.4,31.65 1.45,8.95 -0.3,11.35 -1.2,1.65 -5.75,4.15 -4.85,2.65 -8.3,3.2 l -13.1,0.8 q -5.95,0.45 -16.1,-0.4 l -12.4,-4.35 q -1.25,-7.35 2.15,-15.7 -2.6,2.25 -6.85,2.7 l -6.95,0.15 -12.1,-8.05 q -6.15,3.5 -14.35,10.2 -8.25,6.7 -13.25,12.35 -4,4.45 -7.2,3.55 l -0.15,4.05 q 1.6,0.25 1.75,3.05 0.15,1.5 -0.1,3.45 -0.3,2.25 -1,3.75 -0.9,2.1 -3.8,4.9 -3.55,3.4 -7.25,4.8 l -15.4,4.25 -7.8,0.8 q -5.1,0.25 -8.05,-0.15 l -13.5,-5.3 q -3.3,-2.45 -1.95,-8.9 1.25,-5.85 4.7,-9.65 0.6,-2.5 1.2,-7.6 l 0.85,-8.4 q -4.6,-0.95 -8,-4.65 -3.1,-3.35 -3.75,-7.2 -1.3,1.3 -2.7,3.15 -1.65,2.1 -2.2,3.4 -0.65,1.5 -2.5,3.45 -1.95,2.05 -3.95,3.1 -2.35,1.3 -5.55,1.7 -3.9,0.5 -7.95,-0.6 l -11,-0.3 -9.2,-1.1 q -2.55,-0.55 -4.8,-2.05 -1.8,-1.2 -4.6,-3.95 -4.35,2.45 -10.9,3.95 -6.85,1.6 -11.6,1.1 l -16.1,-1.5 -6.15,-2.45 0.25,-12.4 6.15,-7.5 q -2.6,0.1 -12.4,1.75 -9.05,1.5 -12.15,-6.95 -6.75,-18.1 -7.25,-47.9 -0.05,-2.65 1.35,-5 l 2.6,-3.35 q 1.3,-1.5 2.55,-4.15 1.35,-2.85 1.95,-5.5 0.55,-2.5 0,-7.55 L 8.1,104.35 Q 5.55,96.95 5.8,92.25 6,89 7.85,85.65 q 5,-9.3 12.25,-15.7 2.55,-2.25 9.45,-6.8 3.2,-2.2 5.5,-2.9 2.55,-0.8 4.7,0 2.1,0.75 3.5,3.9 1.2,2.75 1.55,6.35 l 5.35,1.75 Q 67.8,68.05 82.05,50.35 93.95,35.5 99,17.95 l 2,-7.55 q 1.05,-3.2 3.05,-5 2.25,-2.05 8.2,-3.1 l 9.65,-0.45 q 6.1,0.85 10.4,6.7 l 9.25,12.7 q 7.3,8.8 13.55,11.3 6,-0.6 12.9,-8.9 2.55,-3.05 7.8,-11.15 l 3.95,-5.75 q 2.2,-2.9 3.7,-3.55 4.4,-1.8 10.7,-0.75 5.35,0.9 9.9,3.35 3.95,2.1 5.85,4.45 1.85,2.25 2.75,5.95 4.7,17.85 11.5,27.15 4.8,6.6 12.1,10 6.6,3.05 16.4,4.05"
         id="path2" />
      <path
         style="fill:#ffffff"
         inkscape:connector-curvature="0"
         d="m 65.05,172.3 q 7.3,4.9 12.85,10.95 3.7,3.95 7.1,9.1 -7.45,1.8 -14.15,-3.85 -2.65,-2.2 -4.35,-6.9 -1.7,-4.7 -1.45,-9.3"
         id="path4" />
      <path
         style="fill:#e50044"
         inkscape:connector-curvature="0"
         d="m 70,176.2 q 5.15,3.6 10.9,10.15 -1.3,1.3 -3.2,1.6 -2.35,0.4 -4.6,-1 -2.3,-1.45 -3.1,-4.75 -0.75,-3 0,-6"
         id="path6" />
      <path
         style="fill:#c6dcdb"
         inkscape:connector-curvature="0"
         d="m 27.5,203.1 q 2.05,0.4 2.75,5.05 0.65,4.45 -0.45,5.65 -1.15,1.25 -6.4,2 -5.7,0.8 -6.85,-1.15 -1.6,-2.65 3.6,-7.4 4.95,-4.6 7.35,-4.15"
         id="path8" />
      <path
         style="fill:#c6dcdb"
         inkscape:connector-curvature="0"
         d="m 47.25,212.7 q 3.1,4.5 1.95,6.4 -1.15,1.85 -7.9,3.6 -7.05,1.85 -8.7,-0.2 -1.7,-2.1 1.75,-7.6 3.3,-5.35 5.85,-6 3.8,-0.95 7.05,3.8"
         id="path10" />
      <path
         style="fill:#ffffff"
         inkscape:connector-curvature="0"
         d="m 77.8,207.7 -2.35,2.8 q -1.4,1.3 -2.5,0.95 -1.2,-0.45 -2.9,-4.85 -1.65,-4.3 -1.85,-6.95 3.1,1.15 5.6,3.5 1.45,1.3 4,4.55"
         id="path12" />
      <path
         style="fill:#c6dcdb"
         inkscape:connector-curvature="0"
         d="m 147.2,248.75 q 1.95,4.35 1.35,6.35 -1.4,4.7 -7.45,7.6 -5.75,2.75 -7.05,0.8 -2.8,-4.2 0.2,-12.3 3.05,-8.4 8.3,-7.55 2.55,0.4 4.65,5.1"
         id="path14" />
      <path
         style="fill:#c6dcdb"
         inkscape:connector-curvature="0"
         d="m 175.75,248.3 q 2.8,3.55 2.25,6.95 -0.55,3.5 -3.7,7.5 -3,3.75 -4.8,3.95 -1.25,0.1 -3.8,-2.8 -2.95,-3.3 -3.1,-6.45 -0.2,-4.45 3.1,-8.7 3.1,-4.05 5.55,-3.8 2,0.25 4.5,3.35"
         id="path16" />
      <path
         style="fill:#c6dcdb"
         inkscape:connector-curvature="0"
         d="m 256.2,215.9 q 2.5,0.85 3.4,6.2 0.85,4.95 -0.3,6.55 -1.35,1.85 -5.55,4.15 -4.8,2.6 -6.55,1.15 -1.45,-1.15 -1.25,-4.5 0.2,-3.15 1.7,-6.6 3.7,-8.7 8.55,-6.95"
         id="path18" />
      <path
         style="fill:#c6dcdb"
         inkscape:connector-curvature="0"
         d="m 287.2,222.45 q 1.75,4 1.25,6.15 -0.45,1.9 -3.4,4.7 -2.9,2.7 -4.15,2.65 -1.3,-0.05 -3.05,-1.95 -1.95,-2.1 -2.2,-4.35 -0.3,-3.05 2.7,-7.3 2.95,-4.15 4.95,-4.1 2.05,0.05 3.9,4.2"
         id="path20" />
      <path
         style="fill:#0d131a"
         inkscape:connector-curvature="0"
         d="m 23.95,80.2 q -1.25,3.1 -2.7,12.05 -1.35,8.05 -1.7,8.25 -0.9,0.55 -5.3,-5.45 3,-8.35 9.7,-14.85"
         id="path22" />
      <path
         style="fill:#0d131a"
         inkscape:connector-curvature="0"
         d="m 145.8,89.95 q -3.45,-6.85 -11.65,-19.25 3.2,0.35 6.35,1.6 3.35,1.4 4.4,2.95 1,1.5 1.25,7.15 0.2,5.25 -0.35,7.55"
         id="path24" />
      <path
         style="fill:#759ab5"
         inkscape:connector-curvature="0"
         d="m 12.55,111.65 9.95,9.25 q 4,3.65 11.9,15.5 1.45,2.2 5.7,11.75 4.3,9.6 6.3,12.65 -2.85,-0.65 -4.65,-2.45 -3.8,-3.8 -8.75,-7.9 -1.7,-15.2 -20.45,-38.8"
         id="path26" />
      <path
         style="fill:#759ab5"
         inkscape:connector-curvature="0"
         d="m 46.15,196.8 q -1.15,-0.95 -1.75,-2.45 13.6,-0.2 23.95,5.55 0.25,3.3 1.8,7.2 1.55,3.95 2.75,4.2 1.65,0.6 5.05,-3.6 2.95,3.65 9.75,7.65 6.45,3.85 13.25,6.2 -14.6,0.35 -21,-1.8 -4.65,-1.55 -9.8,-6.9 -4,-4.2 -11.15,-8.85 -5.7,-3.7 -9.2,-5.15 -2.5,-1.05 -3.65,-2.05"
         id="path28" />
      <path
         style="fill:#759ab5"
         inkscape:connector-curvature="0"
         d="m 116.3,187.15 q 2.55,-6.15 3.9,-13.55 1.25,-6.7 1,-11.1 2.4,4.15 2.15,16.65 -0.2,8.6 -1.2,15.45 -0.45,3.5 -2.3,6.15 -1.65,2.4 -3.85,3.25 l -9.1,0.3 q -4.9,-1.15 -7.25,-4.05 9.95,3 16.65,-13.1"
         id="path30" />
      <path
         style="fill:#759ab5"
         inkscape:connector-curvature="0"
         d="m 130.5,193.6 q -1.4,3.35 -2.05,6.1 -1.4,6.15 -4.15,9.5 l -3.45,5.1 q -2.3,3.5 -3.45,4.25 0.35,-2.5 1.05,-4.6 0.75,-2.3 1.65,-3.2 l 1.75,-2.55 q 0.85,-1.75 1.15,-3.6 0.35,-2.3 1.55,-7.05 1.3,-5.4 2.2,-7.55 1.4,-3.2 5.6,-8.95 5.25,-7.2 10.35,-11.55 -3.4,4.55 -6.05,11.05 -2.8,7 -3.65,8.25 -1.2,1.8 -2.5,4.8"
         id="path32" />
      <path
         style="fill:#759ab5"
         inkscape:connector-curvature="0"
         d="m 49.15,219.15 q 0.2,-4.6 -3.35,-7.75 -2.95,-2.7 -5.3,-2.4 -1.6,0.2 -4,3.05 -1.85,2.2 -3.7,5.4 L 27,215.3 q 2.25,-0.55 3,-2.1 l 0.45,-2.9 q 5.15,-0.25 12.3,-3.4 7.45,-3.25 9.9,-6.6 5,2.35 10,6.2 l 9.15,7.7 q -5.4,2.3 -11.65,3.75 -6.75,1.5 -11,1.2"
         id="path34" />
      <path
         style="fill:#759ab5"
         inkscape:connector-curvature="0"
         d="m 65.7,74.85 q -8.65,10.1 -2,36.95 6.3,25.5 21.75,49.4 -17,-21.45 -27.6,-46.2 -9.2,-21.6 -13.1,-44.5 3.55,1.6 5.9,2.25 6.5,1.85 15.05,2.1"
         id="path36" />
      <path
         style="fill:#759ab5"
         inkscape:connector-curvature="0"
         d="m 155.55,184.2 q -2.7,2.75 -4.7,6.35 -2.05,3.65 -2.2,6.15 -3.8,3.3 -6.25,8.15 -2.6,5.15 -4.85,14.1 -3.4,-0.45 -6.45,-3.45 -3.15,-3.15 -5.15,-8.3 1.05,-1.35 1.95,-4.55 l 1.15,-4.85 q 0.85,-3.15 8.4,-7.65 8.75,-5.15 18.1,-5.95"
         id="path38" />
      <path
         style="fill:#759ab5"
         inkscape:connector-curvature="0"
         d="m 184.05,190.25 q 5.05,4 6.35,10.4 1.5,7.25 -2.15,16.2 -0.55,-6.9 -2.5,-12.95 -2,-6.1 -4.35,-8.3 -7.55,-7.3 -20.2,-7.3 5.45,-2.85 11.8,-2.3 6.35,0.55 11.05,4.25"
         id="path40" />
      <path
         style="fill:#759ab5"
         inkscape:connector-curvature="0"
         d="m 153.7,259.2 -7.1,-0.55 q 1.65,-1.75 1.85,-4.05 0.15,-1.75 -0.65,-4.6 7.5,-2.15 14.7,-6 8.5,-4.6 12,-9.35 3.65,0.9 7.3,0.7 2.95,-0.1 5,-0.8 1.55,-0.5 2.45,0.35 0.8,0.8 0.65,2.05 l -0.3,4.2 q -0.2,2.2 -0.75,3.2 -3.05,5.65 -10.75,9.5 -1.3,-4 -3.1,-6.45 -2.1,-3 -4.15,-2.5 -3.9,0.95 -6.45,6.1 -2.35,4.65 -1.55,7.45 l -9.15,0.75"
         id="path42" />
      <path
         style="fill:#759ab5"
         inkscape:connector-curvature="0"
         d="m 210.75,170.25 q 2.6,4.65 9.65,6.05 l 10.1,0.55 q 1.15,2.25 0.8,4.95 -0.35,2.75 -2.05,2.95 l -7.45,-0.3 q -4.95,-0.8 -6.6,-2.15 -1.65,-1.35 -3.05,-5.3 -1.3,-3.75 -1.4,-6.75"
         id="path44" />
      <path
         style="fill:#759ab5"
         inkscape:connector-curvature="0"
         d="m 185.7,94.95 -7.55,-2.55 q -5.5,-2.15 -11.5,-5.4 7.25,2.25 16.95,-0.65 9.15,-2.75 12.25,-7.3 6.1,1.05 11.55,-4.3 4.7,-4.65 5.5,-9.75 6.1,3 11.35,7.3 5.15,4.15 7.15,7.6 -10.8,9.35 -24.25,13.15 -11.35,3.2 -21.45,1.9"
         id="path46" />
      <path
         style="fill:#759ab5"
         inkscape:connector-curvature="0"
         d="m 205.35,128.8 -21.55,13.1 q -8.85,1.4 -15.1,1.4 -9.45,0 -16,-2.9 0,-2.75 -1.6,-5.35 -1.65,-2.5 -3,-5.65 -1.95,-4.6 -1.9,-7.85 3.2,5.6 16.45,6.55 12.6,0.95 29.95,-2.45 17.8,-3.55 33.9,-10.35 17.7,-7.5 28.4,-17.05 -6.55,10 -10.5,25.95 -2.5,10.15 -3.55,20.95 -0.35,3.35 -1.7,4.7 -1.75,1.8 -5.95,1.4 l -8.1,-0.45 -7.3,0.65 3.35,-4.85 q 1.35,-2.65 0.6,-4.7 -3.2,-8.3 -8.5,-13.25 -1.65,-1.45 -3.15,-1.55 -1.9,-0.1 -4.75,1.7"
         id="path48" />
      <path
         style="fill:#759ab5"
         inkscape:connector-curvature="0"
         d="m 288.4,228.9 q 0.25,-2.8 -1.35,-6.7 -1.75,-4.25 -3.7,-4.1 -2.55,0.15 -5.55,4.8 -2.95,4.6 -2.1,7 l -16.5,-0.85 q 1.05,-2.35 0.75,-5.2 9.5,-2.35 18.25,-8.2 9.85,-6.65 13,-14.25 2.75,0.75 7.1,5.45 3.55,3.9 4.5,3 l 0.8,6.4 q 0.1,3.5 -1.25,5.05 -4.7,5.35 -13.95,7.6"
         id="path50" />
      <path
         style="fill:#759ab5"
         inkscape:connector-curvature="0"
         d="m 157.6,59.85 q 3.05,7.95 4,11.7 -1.05,-1 -2.8,-2.15 l -4.3,-2.8 q 1.35,-3.75 3.1,-6.75"
         id="path52" />
      <path
         style="fill:#759ab5"
         inkscape:connector-curvature="0"
         d="m 244.65,70.95 q -2.5,0.85 -12.8,9.1 -3.2,-4.4 -8.6,-8.6 -5.05,-3.9 -10,-6.15 9.55,3 22.55,0.65 11.9,-2.2 21.9,-7.8 2.5,1.5 3.45,6.55 0.9,4.5 1.35,16.8 -1.5,-2.85 -3.55,-5.8 -2.25,-3.3 -3.15,-3.7 l -5.4,-0.95 q -4.5,-0.5 -5.75,-0.1"
         id="path54" />
      <path
         style="fill:#759ab5"
         inkscape:connector-curvature="0"
         d="m 187.65,211.75 q 1.75,11 0.55,22.35 -2.1,0.95 -5.45,1.25 l -6,-0.2 q 3.45,-7.5 3.15,-21.7 -0.3,-13.5 -3.45,-21.65 8.55,3.75 11.2,19.95"
         id="path56" />
      <path
         style="fill:#759ab5"
         inkscape:connector-curvature="0"
         d="m 290.15,137.75 q 9.6,17.75 13.6,38 4,20.25 0.2,32.2 -0.5,1.65 -1.85,1.85 -1.3,0.25 -2.3,-1.1 -2.45,-3.3 -6.25,-5.95 5.15,-13.8 3.2,-33.8 -1.45,-15.35 -6.6,-31.2"
         id="path58" />
      <path
         style="fill:#759ab5"
         inkscape:connector-curvature="0"
         d="m 262.6,82.05 q 7.4,-1.35 15,-7.1 8.1,-6.15 12.7,-14.75 -3.75,10.05 -5.3,15.2 -3.2,10.8 -3.8,19.5 -5.3,-5.95 -7.25,-5.8 l -5.55,0.9 -6.2,0.45 q 1.5,-1.1 1.7,-2.35 0.3,-1.9 -1.3,-6.05"
         id="path60" />
      <path
         style="fill:#759ab5"
         inkscape:connector-curvature="0"
         d="m 285.1,110.55 q -2.05,4.35 -5.65,9.2 -9.05,0.55 -16.95,3.05 -10.15,3.2 -20.25,10.05 l 1.6,-8.35 q 1.1,-5.15 2.25,-7.75 12.75,0.8 24.15,-2.55 11.4,-3.4 16.75,-9.65 0,2.05 -1.9,6"
         id="path62" />
      <path
         style="fill:#759ab5"
         inkscape:connector-curvature="0"
         d="m 236.25,196.05 q 1.35,-2.1 1.25,-5.8 18.95,2.75 31.55,-4.75 11,-6.55 11.25,-16.1 2,4.2 5.05,8.65 2.7,4 4.8,6.25 l -0.6,5.55 -0.6,3.65 q -0.55,1.35 -1.35,1.95 -1.1,0.75 -3.1,0.6 -7.4,-0.6 -16.6,2.7 -10.15,3.6 -19.55,10.95 -2.85,2.25 -5.65,2.25 l -3.7,0.1 -3.75,-0.1 -11.75,-8.05 q 4.2,-2.75 9.7,-5.35 2.05,-1 3.05,-2.5"
         id="path64" />
      <path
         style="fill:#0d131a"
         inkscape:connector-curvature="0"
         d="m 23.85,80.45 q -2.25,1.5 -5.25,6.05 -2.6,3.9 -4.5,8.05 -1,-1.4 -1.6,-3.4 -0.65,-2 -0.4,-2.8 1.5,-5.25 6.7,-10.5 4.8,-4.85 6.05,-4.1 0.7,0.4 0.15,2.75 l -1.15,3.95"
         id="path66" />
      <path
         style="fill:#759ab5"
         inkscape:connector-curvature="0"
         d="m 188.25,217.45 q 8.8,-5.75 22.9,-12.05 14.35,-6.35 25.15,-9.2 -12,6.6 -20.4,12.65 -10.5,7.55 -21.1,18.1 l -2.7,2.45 q -1.95,1.25 -3.7,0.4 0.25,-6.75 -0.15,-12.35"
         id="path68" />
      <path
         style="fill:#759ab5"
         inkscape:connector-curvature="0"
         d="m 146.05,122 q 0.6,4.05 2.35,8.15 1.4,3.2 2.7,4.9 1.05,1.4 1.35,3.5 0.3,2.25 -0.55,4.1 -3.15,7.2 -6.15,15.45 -0.8,-8.55 -0.65,-19.4 0.1,-10 0.95,-16.7"
         id="path70" />
      <path
         style="fill:#a7bab9"
         inkscape:connector-curvature="0"
         d="m 27.35,202.9 q 2,1.5 2.85,5.6 0.9,4 -0.45,5.25 -1.45,1.3 -5.2,1.75 l -7.15,-0.45 q 4.6,-1.85 7.4,-5.6 2.45,-3.35 2.55,-6.55"
         id="path72" />
      <path
         style="fill:#a7bab9"
         inkscape:connector-curvature="0"
         d="m 41,208.75 q 4.2,0.2 6.75,4.45 2.25,3.8 1.25,5.95 -0.75,1.65 -5.65,2.95 -4.7,1.2 -8.15,0.9 4.85,-2.15 6.4,-6.4 1.4,-3.95 -0.6,-7.85"
         id="path74" />
      <path
         style="fill:#dbdcdc"
         inkscape:connector-curvature="0"
         d="m 73.3,202.35 q 2.15,2.1 4.3,4.9 -2.2,3.7 -4.5,4.2 1.3,-4.35 0.2,-9.1"
         id="path76" />
      <path
         style="fill:#a7bab9"
         inkscape:connector-curvature="0"
         d="m 146.95,248.15 q 2.5,4.6 1.35,7.75 -1.2,3.15 -5.8,5.7 -4.4,2.4 -7.45,2.05 6,-3.4 7.55,-9.7 1.25,-5 -0.45,-10.45 2.4,0.25 4.8,4.65"
         id="path78" />
      <path
         style="fill:#a7bab9"
         inkscape:connector-curvature="0"
         d="m 175.4,248.15 q 3.1,3.8 2.6,7.1 -0.5,3.45 -3.3,6.85 -2.55,3.1 -5.35,4.35 3.35,-3.9 3.3,-10.8 0,-5.25 -1.8,-10.75 1.7,-0.35 4.55,3.25"
         id="path80" />
      <path
         style="fill:#a7bab9"
         inkscape:connector-curvature="0"
         d="m 255.35,215.55 q 2.7,0.25 4.05,5.6 1.25,5.15 -0.05,7.4 -1.1,1.9 -4.95,3.65 -3.5,1.55 -6.45,1.85 5.9,-4.2 7.45,-9.6 1.15,-3.95 -0.05,-8.9"
         id="path82" />
      <path
         style="fill:#a7bab9"
         inkscape:connector-curvature="0"
         d="m 287.2,222.5 q 1.75,4.05 1.15,6.2 -0.5,1.9 -3,4.2 -2.5,2.3 -4.65,2.8 3.6,-3.85 3.85,-8.75 0.2,-3.55 -1.55,-8.95 2.3,0.2 4.2,4.5"
         id="path84" />
      <path
         style="fill:#0d131a"
         inkscape:connector-curvature="0"
         d="m 170.95,143.05 q 3.45,-3.25 7.8,-4.7 5.55,-1.9 9.75,0.55 -4,2.6 -6.25,3.45 l -11.3,0.7"
         id="path86" />
      <path
         style="fill:#0d131a"
         inkscape:connector-curvature="0"
         d="m 213.3,160.7 q 4.1,3.15 6,7.8 1.7,4.15 0.95,7.7 -7.45,-1.2 -9.25,-6.25 0,-3.8 2.3,-9.25"
         id="path88" />
      <path
         style="fill:#759ab5"
         inkscape:connector-curvature="0"
         d="m 147.7,63.25 q 3.4,-1.25 9.45,-2.9 -1.4,2.7 -2.65,6.25 -0.9,-0.6 -6.8,-3.35"
         id="path90" />
      <path
         style="fill:#dbdcdc"
         inkscape:connector-curvature="0"
         d="m 133.6,179.55 q -0.75,6.75 -4.5,11.1 -1.85,2.15 -3.6,2.95 1,-4 4.65,-9.4 l 3.45,-4.65"
         id="path92" />
      <path
         style="fill:#0d131a"
         inkscape:connector-curvature="0"
         d="m 75.95,181.55 q 0.25,1.85 -0.15,3.3 -0.4,1.4 -1.15,1.4 -1,0 -1.25,-2.4 -0.25,-2.45 0.6,-4.1 l 1.95,1.8"
         id="path94" />
      <path
         style="fill:#ffffff"
         inkscape:connector-curvature="0"
         d="m 74.3,180.1 q -0.15,1.9 -1.8,1.9 -1.35,0 -1.65,-1.6 -0.3,-1.6 1.1,-2.35 1.4,0.8 2.35,2.05"
         id="path96" />
      <path
         style="fill:#0d131a"
         inkscape:connector-curvature="0"
         d="M 78.7,193.45 Q 75.6,193 73.4,191.7 63.95,186.1 64.5,172.95 l 1.1,0.6 q -0.1,4.8 1.9,9.2 2.25,4.95 6.4,7.4 2.15,1.3 4.9,1.8 l 5.55,-0.15 0.6,1.45 -6.25,0.2"
         id="path98" />
      <path
         style="fill:#0d131a"
         inkscape:connector-curvature="0"
         d="m 15.45,140.05 q -1.45,-0.8 -1.3,-1.2 0.2,-0.45 1.7,0.25 7.75,3.65 15.5,9.2 6.75,4.8 10.25,8.6 1.7,1.85 4.8,3.3 l 1.05,2.8 q -5.25,-2.25 -6.9,-4.2 -2.45,-3 -9.2,-8.3 -8,-6.2 -15.9,-10.45"
         id="path100" />
      <path
         style="fill:#0d131a"
         inkscape:connector-curvature="0"
         d="m 135.7,71.5 -0.25,0.15 q -0.05,0.2 0.2,0.5 2.35,2.8 5.35,7.7 2.95,4.9 4.35,8.25 l 0.2,0.35 0.05,-0.3 V 87.1 l -0.3,-6.35 q -0.3,-3.55 -0.9,-4.8 -0.7,-1.55 -3.75,-2.9 -2.55,-1.2 -4.95,-1.55 m -1.05,1.35 q -2.6,-3.2 1.15,-2.7 2.35,0.4 5.2,1.65 3.75,1.65 4.65,3.55 0.7,1.6 1,5.95 0.25,3.8 0.1,7.15 -0.1,2.05 -0.8,2.2 -0.75,0.2 -1.65,-1.8 -1.3,-3 -4.45,-8.15 -3.1,-5.2 -5.2,-7.85"
         id="path102" />
      <path
         style="fill:#0d131a"
         inkscape:connector-curvature="0"
         d="m 45,197.5 q -1.15,-1.45 -1.55,-3.15 l 1.95,0.05 q 0.3,1.15 0.95,1.8 l 2.75,1.55 q 5.7,2 12.85,7.25 6.15,4.45 12.7,10.8 2.55,2.45 6.95,3.45 5.35,1.25 17.1,1.4 l 4.4,1.95 -20.4,-0.75 Q 76.3,220.95 73.55,218 66.4,210.2 58.95,205.2 53.1,201.35 48.35,199.9 46.4,199.3 45,197.5"
         id="path104" />
      <path
         style="fill:#0d131a"
         inkscape:connector-curvature="0"
         d="m 40.5,221.85 q 6.65,-1.3 7.65,-2.9 0.9,-1.45 -1.5,-5.25 -2.55,-4.15 -5.9,-3.75 -2.2,0.25 -5.3,5.25 -3.15,4.95 -2.2,6.7 0.6,1.2 7.25,-0.05 m 0.15,-13.6 q 4.3,-0.5 7.65,4.3 3.15,4.6 1.65,7.15 -1.7,2.7 -9.75,4.35 -8.05,1.65 -9.15,-0.5 -1.55,-2.9 2.55,-9 3.95,-5.95 7.05,-6.3"
         id="path106" />
      <path
         style="fill:#0d131a"
         inkscape:connector-curvature="0"
         d="m 186.2,140.2 q -1.65,0.95 -3.35,1.85 -6.5,2.4 -15.8,2.1 -8,-0.3 -13.55,-2.25 -0.35,-0.1 -0.9,-1.3 l -0.5,-1.15 q 5.25,2.4 15,3 11.35,0.7 19.1,-2.25"
         id="path108" />
      <path
         style="fill:#0d131a"
         inkscape:connector-curvature="0"
         d="m 177.1,255.7 q 0.45,-2.15 -1.7,-5.8 -2.15,-3.75 -4.25,-3.95 -1.9,-0.2 -4.45,3.15 -2.6,3.3 -3.1,6.7 -0.45,2.75 1.9,6.3 2.3,3.4 4.1,3.3 1.7,-0.1 4.35,-3.65 2.6,-3.45 3.15,-6.05 m -11.2,-8.55 q 3.1,-3.4 5.45,-3.15 2.9,0.3 5.5,4.8 2.5,4.3 1.95,7.05 -0.6,3.45 -3.6,7.65 -3.2,4.5 -5.75,4.6 -2.45,0.1 -5.3,-4.5 -2.85,-4.65 -2.35,-8.05 0.75,-4.7 4.1,-8.4"
         id="path110" />
      <path
         style="fill:#0d131a"
         inkscape:connector-curvature="0"
         d="m 284.45,232.4 q 2.85,-2.55 3.1,-4 0.35,-2.1 -1.05,-5.5 -1.45,-3.5 -3.05,-3.8 -1.35,-0.25 -4.2,3.55 -2.95,3.85 -2.8,6.1 0.15,2.45 1.95,4.4 1.5,1.7 2.5,1.7 0.85,0 3.55,-2.45 m -0.85,-15.25 q 2.3,0.45 4.25,4.75 1.9,4.1 1.4,6.8 -0.35,2 -3.45,5.2 -3.15,3.3 -4.9,3.3 -1.7,0 -3.8,-2.6 -2.25,-2.75 -2.45,-5.7 -0.2,-3.1 3.4,-7.65 3.55,-4.5 5.55,-4.1"
         id="path112" />
      <path
         style="fill:#0d131a"
         inkscape:connector-curvature="0"
         d="m 301.95,209.95 1.85,-0.75 q 1.2,10.6 -0.4,13.05 -2.5,3.95 -15.35,7.75 l 0.55,-1.8 q 10.8,-3.95 13.05,-7.55 1.35,-2.05 0.3,-10.7"
         id="path114" />
      <path
         style="fill:#0d131a"
         inkscape:connector-curvature="0"
         d="m 70.25,184.4 q -1,-1.85 -1.2,-4 -0.2,-2.25 0.45,-4.2 l 1.05,0.6 q -1.2,3.65 0.6,7.1 1.65,3.2 4.65,3.65 2.65,0.35 4.4,-1.35 l 0.75,0.9 q -2.3,2 -5.45,1.35 -3.4,-0.65 -5.25,-4.05"
         id="path116" />
      <path
         style="fill:#0d131a"
         inkscape:connector-curvature="0"
         d="m 116.65,161.5 q 2.85,-1.65 4.4,-0.85 1.6,0.85 2.2,4.45 1.3,7.85 1.25,16.4 -0.1,8.15 -1.4,14.25 -0.85,4.25 -2.95,6.5 -2.95,3.2 -8.65,3 -1.05,-0.05 -1.05,-0.45 0,-0.4 1.05,-0.55 4.95,-0.75 7.1,-3.25 1.5,-1.75 2.3,-5.7 1.35,-6.45 1.7,-13.9 0.35,-8.65 -0.9,-16.05 -0.75,-4.4 -4.45,-2.15 -3.9,2.35 -10.6,9.9 -6.7,7.5 -9.25,12.4 -2.3,4.35 -0.45,9.45 1.8,5 6.6,7.9 1,0.6 0.8,1 l -1.25,-0.1 q -5.85,-2.6 -8.2,-8.5 -2.25,-5.7 0.3,-10.6 2.55,-4.9 10,-12.85 7.35,-7.9 11.45,-10.3"
         id="path118" />
      <path
         style="fill:#0d131a"
         inkscape:connector-curvature="0"
         d="m 40.1,61.55 q -2.35,-1.45 -5.7,0.1 -8.05,3.7 -15.1,10.5 Q 11.25,80 8.15,88.8 6.2,94.25 8.2,101.05 q 2.2,7.7 8.6,13.45 16,14.5 21.7,27.9 3.4,8 6.4,13.55 4,7.4 6.25,8.25 16.25,6.35 26.35,16.5 9.85,9.9 14.15,23.6 0.85,2.85 2.8,4.35 1.85,1.45 6.45,2.85 2.2,0.7 2.9,2.7 0.8,2.25 0.8,5.4 -0.05,0.9 -0.5,0.95 -0.4,0.05 -0.5,-0.85 -0.1,-1 -1.4,-4.7 -0.6,-1.65 -2.15,-2.2 -4.9,-1.5 -6.75,-2.7 -2.5,-1.6 -3.5,-4.75 Q 85.45,191.4 77.3,183 67.95,173.4 49.7,166.4 47,165.35 43.25,157.7 L 36.85,143 Q 31.5,130.65 15.15,115.85 8.15,109.5 5.9,101.15 3.95,93.95 6,88.1 9.25,78.95 17.85,70.2 q 7.8,-7.95 15.8,-11.6 4,-1.85 7.05,-0.4 3.75,1.75 4.75,8.35 2.5,16.7 7.4,31.4 3.45,10.3 10.4,25.85 7.05,15.8 19.05,32.15 10.55,14.35 19.25,21.75 l -1.2,1.85 Q 89.85,170.05 79.6,155.85 68.5,140.45 61.4,124.45 53.8,107.2 50.85,98.8 45.7,84 43.25,67.55 q -0.7,-4.45 -3.15,-6"
         id="path120" />
      <path
         style="fill:#0d131a"
         inkscape:connector-curvature="0"
         d="m 9,105.6 q 2.65,13.7 1.9,17.7 -0.8,4.2 -2.15,7.15 -1.3,2.75 -3.55,5.3 -2.5,2.9 -2.55,5.55 -0.45,17.4 2.7,32.75 2.25,11.2 5.55,18.1 1.2,2.45 3.6,3.55 2.4,1.1 5.5,0.55 17.3,-3 26.25,-2.75 12.7,0.35 24.15,6.25 2.6,1.35 4.8,3.4 2,1.85 4.8,5.4 2.35,2.85 10.3,7.3 9.6,5.4 15.85,5.25 5.95,-0.1 7.75,-1.5 5.95,-4.4 7.3,-7.2 l 1.9,-2.9 1.95,-2.45 0.85,-1.75 1,-2.7 q 2.55,-10.6 6.2,-14.9 0.75,-0.85 1.1,-0.55 0.35,0.25 -0.35,1.2 -3,4.3 -5.5,14.95 l -1.1,3.05 -0.95,1.75 q -2.6,3.2 -3.75,5.75 -1.8,3.9 -7.45,7.7 -2.55,1.8 -8.95,2.05 -6.6,0.25 -16.6,-5.5 -8.35,-4.8 -11.05,-8.25 l -4.5,-5.3 q -2,-2 -4.4,-3.25 -11,-5.65 -24.3,-5.4 -7.25,0.1 -26.45,3.45 -3.4,0.6 -6.6,-1.15 -3.1,-1.65 -4.45,-4.65 -3.1,-6.7 -5.3,-18.75 -2.85,-15.8 -2.4,-33.4 0.05,-4.05 2.45,-6.6 2.3,-2.55 3.65,-4.75 2,-3.35 2.65,-7.05 0.4,-2.1 -0.7,-10.8 Q 7.2,104.9 6.05,99.05 L 9,105.6"
         id="path122" />
      <path
         style="fill:#0d131a"
         inkscape:connector-curvature="0"
         d="m 77.25,206.5 0.95,1.4 q -1.1,1.9 -2.45,3.1 -1.55,1.3 -2.8,1.1 -1.8,-0.3 -3.9,-4.9 -1.95,-4.4 -2.25,-8.15 l 2,0.85 q 0.65,4 2,7.3 1.35,3.3 2.45,3.5 0.8,0.15 2.05,-1.4 l 1.95,-2.8"
         id="path124" />
      <path
         style="fill:#0d131a"
         inkscape:connector-curvature="0"
         d="m 123.65,61.85 q 3.8,0.6 5.7,4.25 1.95,3.85 1.2,9.8 -0.9,6.75 -0.95,11.25 -0.05,7.6 1.45,19.5 2.55,20.5 1.35,39.7 -1.45,23.85 -8.55,33.1 l -0.2,-2.45 q 5.3,-8.6 6.5,-32.85 1.05,-20.55 -1.05,-37.1 -1.5,-11.95 -1.4,-19.95 0.05,-4.6 0.95,-11.4 0.7,-5.65 -1.6,-9.1 -2.1,-3.25 -5.8,-3.15 l 2.4,-1.6"
         id="path126" />
      <path
         style="fill:#0d131a"
         inkscape:connector-curvature="0"
         d="m 118.65,64.95 q 2.9,-3.5 5.9,-5.45 2.95,-1.9 5.2,-1.75 4.95,0.35 12.35,10.15 8.25,11 11.9,25 0.6,2.35 -0.25,5.15 l -2.15,5.8 q -4.05,11.3 -5,27.35 -0.8,13.45 0.65,26.1 0.55,4.6 -0.65,7.7 -0.9,2.2 -3.3,4.65 -6.4,6.4 -10.9,12.75 -4.7,6.75 -5.95,11.7 L 124,205.75 q -0.45,1.8 -1.45,3.2 l -1.8,2.1 q -1,1.1 -1.8,3.15 -0.7,1.65 -0.95,3.25 l -1.35,0.85 q 0.65,-5.5 2.95,-7.95 1.8,-1.95 2.6,-5.2 l 2.65,-11.45 q 1.35,-5.25 5.9,-12.25 4.6,-7.1 10.8,-13.3 2.05,-2.05 2.7,-4.05 0.8,-2.4 0.5,-7 -0.85,-13.4 -0.2,-25.7 0.95,-17.35 4.95,-28.35 2.3,-6.55 1.5,-10.35 -2.3,-10.2 -9.2,-20.65 -7.25,-10.95 -12.8,-11.3 -1.35,-0.1 -3.95,1.7 -2.55,1.7 -4.25,3.75 -3.1,3.8 -8.3,6.25 -5.2,2.4 -11.5,3.05 -37.9,3.6 -56.1,-3.45 L 44.85,69.4 q 10.6,4.65 31.85,5.15 l 24.15,-0.8 q 11.4,-1.1 17.8,-8.8"
         id="path128" />
      <path
         style="fill:#0d131a"
         inkscape:connector-curvature="0"
         d="m 164.1,180.65 q 0.1,2.2 -1.2,3.55 -1.25,1.3 -3.35,1.35 -11.1,0.15 -19.55,3.95 -7.8,3.55 -11.45,9.35 l 1.1,-3.6 q 5.45,-6.7 15.4,-9.8 6.9,-2.15 14.05,-2.2 1.5,-0.05 2.05,-0.75 0.5,-0.65 0.4,-2.25 -0.35,-6.75 -3.9,-21.15 -3.45,-14.15 -5.35,-17.3 -3.2,-4.35 -4.45,-6.65 -2.05,-3.85 -1.9,-9.9 l 0.9,-4.6 q -0.45,7.2 1.9,12.25 1.3,2.9 4.75,6.7 2.75,3.1 6.75,20.1 3.55,15.25 3.85,20.95"
         id="path130" />
      <path
         style="fill:#0d131a"
         inkscape:connector-curvature="0"
         d="m 152.1,140.3 1,1.1 q -1.05,2 -3.7,8.95 -2.8,7.4 -3.75,10.95 l 0.2,-5.55 q 0.6,-2.3 2.9,-7.95 2.3,-5.75 3.35,-7.5"
         id="path132" />
      <path
         style="fill:#0d131a"
         inkscape:connector-curvature="0"
         d="m 125.75,194.7 0.35,-1.65 q 2.05,-1.65 4.15,-5.35 2.3,-4 3.05,-7.8 l 1.2,-1.05 q -0.5,5.1 -2.8,9.3 -2.3,4.25 -5.95,6.55"
         id="path134" />
      <path
         style="fill:#0d131a"
         inkscape:connector-curvature="0"
         d="m 12.85,88.75 q 0,2.05 1.55,4.95 1.55,2.85 4,5.3 0.75,0.75 0.85,-0.15 1.3,-9.6 5.1,-22.55 0.4,-1.4 0,-1.75 -0.45,-0.3 -1.4,0.5 -3.2,2.55 -6.6,7.05 -3.5,4.7 -3.5,6.65 m 0.3,5.9 q -1.8,-3.3 -1.75,-5.95 0.05,-2.35 3.6,-7.25 3.4,-4.65 6.55,-7.05 2.55,-1.95 3.7,-1.55 1.2,0.45 0.4,3.45 -3.05,11.25 -4.8,23.1 -0.25,1.65 -1.1,1.95 -0.9,0.35 -2.15,-0.9 -2.75,-2.75 -4.45,-5.8"
         id="path136" />
      <path
         style="fill:#0d131a"
         inkscape:connector-curvature="0"
         d="m 24.35,78.8 -0.6,2.05 q -2.45,2.5 -5.05,6.85 -2.5,4.1 -3.95,7.8 l -1,-1.3 q 1.5,-3.95 4.55,-8.35 3.1,-4.55 6.05,-7.05"
         id="path138" />
      <path
         style="fill:#0d131a"
         inkscape:connector-curvature="0"
         d="m 26.95,204 q -2.2,-0.25 -6.25,3.85 -4.1,4.15 -3.25,6.2 0.5,1.1 5.6,0.75 5.2,-0.3 6,-1.9 0.85,-1.7 0.05,-5.2 -0.85,-3.5 -2.15,-3.7 m 3.85,10.1 q -1.15,2.2 -8,2.75 -6.9,0.55 -7.9,-1.75 -1.3,-2.95 4.1,-8.15 5.25,-5.1 8.4,-4.7 2.55,0.3 3.65,4.9 1.1,4.45 -0.25,6.95"
         id="path140" />
      <path
         style="fill:#0d131a"
         inkscape:connector-curvature="0"
         d="m 33.4,216.9 -0.6,1.55 q -4.9,-2.2 -7.55,-2.8 l 3.05,-0.75 q 2.6,0.8 5.1,2"
         id="path142" />
      <path
         style="fill:#0d131a"
         inkscape:connector-curvature="0"
         d="m 31.75,195.35 3.15,-0.05 q -3,2.7 -6.9,8.1 l -1.95,-0.6 2.65,-3.8 q 1.65,-2.35 3.05,-3.65"
         id="path144" />
      <path
         style="fill:#0d131a"
         inkscape:connector-curvature="0"
         d="m 71.35,213.05 1.35,2.15 q -2.95,2.25 -11.35,3.7 -6.65,1.15 -12.55,1.3 l 0.45,-1.9 q 5.3,-0.15 11.65,-1.45 7.5,-1.6 10.45,-3.8"
         id="path146" />
      <path
         style="fill:#0d131a"
         inkscape:connector-curvature="0"
         d="m 173.9,184.75 q 9.4,0.55 14.7,8.95 5.35,8.4 2.2,18.05 -0.45,1.3 -0.9,1.15 -0.5,-0.2 -0.2,-1.55 2.1,-9.2 -2.8,-16.6 -4.85,-7.25 -13.15,-7.8 -11.45,-0.7 -22.2,8.4 -12.05,10.2 -12.95,25.9 -0.45,7.6 -1.55,12.55 l -3.15,4.1 q 0.75,-2.05 1.6,-7.6 0.85,-5.4 1.1,-9.2 0.9,-16.1 12.35,-26.8 11.05,-10.4 24.95,-9.55"
         id="path148" />
      <path
         style="fill:#0d131a"
         inkscape:connector-curvature="0"
         d="m 162.45,187.65 q 8.15,0 14.35,3.3 6,3.25 8.5,8.65 2.5,5.5 3.65,15.4 1.2,10.05 0.35,19.4 h -2.2 q 0.85,-9.45 -0.1,-19.1 -1,-9.7 -3.45,-15.05 -2.4,-5.2 -8.85,-8.3 -6.4,-3 -14.45,-2.9 l 2.2,-1.4"
         id="path150" />
      <path
         style="fill:#0d131a"
         inkscape:connector-curvature="0"
         d="m 129.55,245.2 q 0.9,-3.7 5.1,-10.15 3.3,-5 12,-6.7 8.75,-1.75 15.65,1.35 7.65,3.5 13.95,4.5 6.35,1 10.65,-0.6 1.7,-0.6 2.75,0.2 1.05,0.8 1.05,2.45 v 5.25 q -0.2,3.35 -1.2,4.8 -1.4,2 -4.5,4.45 -3.4,2.7 -7.05,4.4 L 177.6,253 q 3,-1.4 6.05,-4.1 2.55,-2.25 4,-4.3 0.95,-1.3 1.25,-3.8 l 0.2,-4.3 q 0,-1.9 -1.75,-1.25 -4.5,1.65 -11.2,0.65 -6.75,-1 -14.5,-4.55 -6,-2.75 -14.35,-1.1 -8.35,1.6 -11,5.95 -3.3,5.4 -4.15,8.55 -1.3,5.05 1.6,8.4 l -0.65,2.5 q -5.05,-4.2 -3.55,-10.45"
         id="path152" />
      <path
         style="fill:#0d131a"
         inkscape:connector-curvature="0"
         d="m 145.45,259.75 1.4,-1.65 q 7.15,0.75 15.85,-1.2 l 0.3,2.1 q -10.4,1.75 -17.55,0.75"
         id="path154" />
      <path
         style="fill:#0d131a"
         inkscape:connector-curvature="0"
         d="m 141.75,244.6 q -1.6,0.35 -3.75,2.8 -2.25,2.55 -3.35,5.65 -0.9,2.5 -0.9,5.9 0.05,3.65 1.4,3.95 2.7,0.6 6.8,-1.75 4.1,-2.35 5.25,-5.15 1.1,-2.65 -1.1,-7.25 -2.25,-4.6 -4.35,-4.15 m -4.75,1.1 q 2.6,-2.7 4.9,-3 3.25,-0.45 6.05,5.05 2.75,5.45 1.3,8.95 -1.45,3.5 -6.3,6.45 -5,3.05 -8.55,2.3 -2.25,-0.5 -2.55,-5.3 -0.25,-4.35 0.95,-7.75 1.4,-3.9 4.2,-6.7"
         id="path156" />
      <path
         style="fill:#0d131a"
         inkscape:connector-curvature="0"
         d="m 137.8,218.05 -0.3,2.55 q -4.4,-0.85 -8.05,-5.05 -3.5,-3.95 -3.95,-8.05 l 1.45,-1.65 q 0.1,3.8 3.35,7.55 3.3,3.8 7.5,4.65"
         id="path158" />
      <path
         style="fill:#0d131a"
         inkscape:connector-curvature="0"
         d="m 211,171.5 0.1,-3.4 q 1,5.75 8.65,7.35 l 9.55,0.45 q 2.95,-0.05 5,2.6 2.2,2.75 3.55,7.95 1.2,4.55 0.95,6.9 -0.25,2.15 -1.1,3.5 -1,1.55 -3.15,2.6 -24.95,11.85 -40.1,30.15 -1.25,1.5 -3,1.65 -1.3,0.1 -2.55,-0.5 l 0.15,-1.55 2.1,-0.15 q 1.35,-0.65 2.4,-1.8 8.9,-9.4 19.35,-17.25 10.45,-7.85 20.55,-12.75 2.55,-1.25 2.85,-4.4 0.25,-2.15 -0.7,-6.15 -1.05,-4.7 -2.95,-7.15 -1.5,-1.95 -3.3,-1.9 l -9.6,-0.7 q -7,-1.5 -8.75,-5.45"
         id="path160" />
      <path
         style="fill:#0d131a"
         inkscape:connector-curvature="0"
         d="m 213.4,126.7 q 2.8,2.6 5.4,6.65 3.1,4.7 4.2,9 0.4,1.5 -0.35,3.25 l -1.5,2.3 q -3.85,5.4 -6.7,12 -3.05,7.15 -2.7,10.7 0.4,4.1 1.5,7.05 1.05,3 2.55,3.95 1.75,1.15 5,1.9 3.8,0.9 8.05,0.8 1.1,-0.05 1.15,0.45 0,0.45 -1.1,0.55 -4.55,0.45 -8.4,-0.05 -3.75,-0.45 -5.45,-1.55 -1.95,-1.25 -3.3,-5.2 -1.25,-3.6 -1.55,-7.9 -0.25,-3.85 2.55,-10.75 2.75,-6.8 6.8,-12.65 1.6,-2.25 1.15,-4.55 -0.85,-4.25 -3.4,-7.95 -1.9,-2.85 -5.25,-5.85 -0.9,-0.85 -2.15,-0.75 l -2.1,0.55 q -1.6,0.65 -4.35,2.3 L 198,134.3 q -12,7.4 -15.8,9.4 -10.1,5.15 -18.2,5.9 l -7.95,-0.45 -0.5,-1.95 q 2.65,1 8.25,0.5 7.85,-0.7 17.85,-5.9 2.3,-1.2 15.45,-9.2 l 5.9,-3.9 4.8,-2.8 q 3.25,-1.3 5.6,0.8"
         id="path162" />
      <path
         style="fill:#0d131a"
         inkscape:connector-curvature="0"
         d="m 189.2,138.6 -1.35,0.85 q -2.7,-2.1 -7.7,-0.7 -4.5,1.3 -8.45,4.55 l -2.1,-0.2 q 4.6,-4.2 9.95,-5.7 5.9,-1.65 9.65,1.2"
         id="path164" />
      <path
         style="fill:#0d131a"
         inkscape:connector-curvature="0"
         d="m 244.1,69.05 5.95,0.3 6.15,1.35 q 1.85,0.6 4.75,5.55 2.95,5.15 4.2,10.2 0.3,1.25 0.2,1.95 -0.15,1.25 -1.3,2.2 -11.9,10.1 -17.1,27.1 -2.7,8.95 -5.05,29.25 -0.45,3.8 -2.7,5.3 -1.55,0.95 -3.75,0.8 l -9,-0.95 q -6.45,-0.6 -8.9,0.15 l 0.8,-1.65 7.95,-0.5 7.95,0.35 q 2.5,0.15 3.75,-0.55 1.75,-1 2.05,-4.05 1.7,-17.05 4.5,-26.85 5.5,-19.35 17.5,-29.45 0.85,-0.7 0.95,-1.4 l -0.15,-1.4 q -1,-4.3 -3.8,-9 -2.7,-4.45 -4.25,-4.95 -1.75,-0.6 -5.3,-0.95 -3.7,-0.4 -4.85,-0.05 -1.4,0.4 -7.8,5.2 -8.1,6.6 -12,9.15 -6.1,3.95 -13.2,6.5 -11.9,4.2 -23,3 l -5.6,-1.8 q 11.45,1.7 24.5,-2.15 9.55,-2.85 16.25,-7.25 2.2,-1.4 6.1,-4.7 l 6.05,-4.95 q 7.1,-5.4 8.15,-5.75"
         id="path166" />
      <path
         style="fill:#0d131a"
         inkscape:connector-curvature="0"
         d="m 244.55,80.45 q 3.65,-2.55 6.6,-3.3 4.2,-1.1 8.8,0.6 l 1.05,2 q -4.7,-1.95 -8.85,-1.05 -3.1,0.65 -6.65,3.2 -13.75,9.65 -22.05,13.35 -9.1,4.05 -18.95,4.4 -12.4,0.4 -38.6,-11.8 -7.7,-3.6 -15.05,1.35 l -1,-1.45 q 4.4,-2.6 7.75,-3.1 4.3,-0.6 9.1,1.65 25.15,11.7 37.9,11.3 9.75,-0.35 18.4,-4.15 8.1,-3.55 21.55,-13"
         id="path168" />
      <path
         style="fill:#0d131a"
         inkscape:connector-curvature="0"
         d="m 162.2,88.8 q 0.95,-0.4 1.2,0 0.2,0.4 -0.7,0.9 -2.95,1.55 -5.85,3.9 -3.1,2.5 -4.75,4.7 v -2.95 q 3.45,-3.5 10.1,-6.55"
         id="path170" />
      <path
         style="fill:#0d131a"
         inkscape:connector-curvature="0"
         d="m 221.15,176.45 -1.35,-0.3 q 0.4,-9.5 -6.9,-14.6 l 0.5,-1.4 q 4.15,2.5 6.25,7 2,4.35 1.5,9.3"
         id="path172" />
      <path
         style="fill:#0d131a"
         inkscape:connector-curvature="0"
         d="m 242.4,133.55 0.25,-2.3 q 11.3,-8.1 25.05,-11.45 9.75,-2.35 13.9,-1.6 2.4,0.45 6.2,5 3.35,4 6.05,8.9 0.5,0.95 0.35,1.95 -0.15,1.05 -1.05,1.9 -6.3,6.3 -10.15,13.5 -3.7,6.85 -3.7,11.55 0,4.5 3.6,11.25 3.35,6.25 8,11.25 0.75,0.85 0.25,5.7 -0.5,4.4 -1.05,5.65 -0.85,1.85 -3.6,1.85 -11.1,0 -19.15,3 -8.6,3.15 -19.4,11.7 -2.25,1.75 -4.35,1.75 l -8.15,0.35 q -1.15,-0.3 -6.6,-4.15 l -6.55,-4.85 1.6,-1.2 q 1.15,0.95 6.2,4.3 l 5.55,3.55 q 0.7,0.3 7.5,-0.1 l 2,-0.35 q 1.2,-0.4 2,-1.05 8.5,-6.7 16.2,-10.1 10.4,-4.55 22.1,-4.55 l 1.5,-0.3 0.75,-1.05 0.9,-3.7 q 0.55,-3.2 0.55,-5.6 -5.4,-6.05 -8.4,-12.2 -3.05,-6.15 -3.05,-11.05 0,-5.25 3.25,-12.05 3.65,-7.55 9.95,-13.85 1.2,-1.25 0.55,-2.5 -2.45,-4.5 -5.3,-7.95 -3.1,-3.8 -5,-4.1 -4.2,-0.8 -13.75,1.5 -13.65,3.2 -25,11.4"
         id="path174" />
      <path
         style="fill:#0d131a"
         inkscape:connector-curvature="0"
         d="m 289.4,138.2 1.5,-1.5 q 10.6,18.85 14.35,37.8 4,20.15 -1,35.05 -0.3,1.05 -1.35,1.4 -1.1,0.4 -2.3,-0.4 l -3.15,-3.25 q -2.4,-2.65 -3.95,-3.5 -2.65,-1.45 -4.35,-1.75 -3.1,-0.45 -5.85,1.7 l -5.8,4.4 q -3.95,2.8 -5.5,3.3 -3.15,0.9 -8.9,-0.8 -6.1,-1.8 -9,-5 l 1.4,-1.05 q 2.15,2.7 7.7,4.15 5.25,1.35 8.25,0.5 2.1,-0.6 11.2,-7.05 5.4,-3.85 11.5,0.1 1.6,1 4.15,3.5 l 2.9,2.8 1,0.1 0.65,-0.8 q 4.5,-13.6 -0.9,-36.6 -4.65,-19.6 -12.55,-33.1"
         id="path176" />
      <path
         style="fill:#0d131a"
         inkscape:connector-curvature="0"
         d="m 255.55,216.5 q -1.8,-0.35 -3.9,1.85 -1.85,1.9 -3.25,5 -1.5,3.3 -1.65,6.1 -0.15,2.75 1.1,3.6 1,0.75 5.55,-1.35 4.45,-2.05 5.15,-3.5 0.95,-1.85 0.05,-6.45 -0.95,-4.85 -3.05,-5.25 m -4.9,0.4 q 2.7,-2.55 5.3,-2.05 2.85,0.55 4.2,6.1 1.25,5.25 -0.05,7.9 -1.2,2.4 -6.35,5.05 -5.35,2.75 -7.3,1.45 -1.75,-1.15 -1.45,-5.5 0.3,-4 1.85,-7.5 1.5,-3.35 3.8,-5.45"
         id="path178" />
      <path
         style="fill:#0d131a"
         inkscape:connector-curvature="0"
         d="m 247.25,223.9 -0.85,2.2 q -1,-2.4 -0.7,-7 0.3,-5.35 2.4,-9.4 l 2.7,-1.85 q -2.25,3.8 -3.2,9 -0.85,4.55 -0.35,7.05"
         id="path180" />
      <path
         style="fill:#0d131a"
         inkscape:connector-curvature="0"
         d="m 258.35,229.85 1.15,-1.6 15.95,0.5 0.35,1.85 q -3.5,0.2 -8.5,0 l -8.95,-0.75"
         id="path182" />
      <path
         style="fill:#0d131a"
         inkscape:connector-curvature="0"
         d="m 261.3,91.65 1.8,-1.8 q 3.1,-0.05 6.45,-1.15 l 3.65,-1.35 q 1.6,-0.5 3.2,0.7 3.75,3 7.8,8.25 4.6,5.9 4.65,8.9 0.05,1.8 -2.3,5.85 l -5.65,8.4 -2.8,0.1 q 8.3,-11.25 8.1,-14.35 -0.1,-2.55 -3.65,-7.35 -3.45,-4.55 -7,-7.35 -1.1,-0.95 -2.35,-0.55 l -4.6,1.05 -7.3,0.65"
         id="path184" />
      <path
         style="fill:#0d131a"
         inkscape:connector-curvature="0"
         d="m 272.65,89.25 2.55,-0.05 q -3.6,4.2 -9.95,8.1 -7.2,4.5 -12.5,4.95 l 1.1,-1.55 q 4.2,-0.8 10.05,-4.45 5.4,-3.4 8.75,-7"
         id="path186" />
      <path
         style="fill:#0d131a"
         inkscape:connector-curvature="0"
         d="m 272.15,58.8 q -8.5,2.75 -12.05,2.5 l -0.9,-1.4 q 3.25,0.3 12.2,-3.2 l 13.55,-5.65 3.15,-0.2 q 1.2,0.4 1.85,1.55 1.5,2.5 1.85,5.3 0.35,2.85 -0.55,5.2 -4.7,12.65 -5.65,15.6 -3.7,11.6 -3.4,17.5 l -1.65,-2.3 q 0.05,-6.25 3.25,-16.7 0.95,-3.1 4.95,-14.3 0.9,-2.35 0.85,-4 -0.05,-1.85 -1.35,-4 -0.9,-1.5 -3,-0.7 l -13.1,4.8"
         id="path188" />
      <path
         style="fill:#0d131a"
         inkscape:connector-curvature="0"
         d="m 255.4,55.95 q 5,0.45 6.3,4.4 0.9,2.65 1.25,9.9 l 0.35,13.55 -1.65,-3.25 Q 260.8,66.3 259.3,61.8 q -0.45,-1.35 -1.7,-2.25 -1.3,-0.95 -3.2,-1.1 -17.5,-1.5 -26.3,-9.6 Q 217.85,39.4 211.45,15.1 l -1.05,-3 q -0.65,-1.15 -2,-2.35 -1.3,-1.15 -3.85,-2.45 l -3.4,-1.5 -4.3,-0.1 q -1.65,0.5 -3.75,2.6 -2.1,2.05 -6.45,8.05 -5.55,7.55 -8.95,11.05 -5.55,5.8 -10.05,6.7 -11.65,2.35 -20.4,-5 -5,-4.25 -16.65,-20.75 L 129,6.4 q -0.95,-0.8 -2.4,-1 -3.05,-0.5 -6.85,0.75 -3.15,1.05 -5.35,2.7 -3.15,2.4 -5.1,7.2 -1.3,3.1 -3.2,10.65 -2.55,10.1 -5.9,18.05 -3.95,9.05 -7.45,14.7 -5.85,9.4 -13.75,16 L 76.35,75.3 q 8.1,-6.6 14.1,-16.15 3.65,-5.8 7.55,-14.9 1.8,-4.15 3.3,-9.2 l 2.35,-8.55 q 1.9,-7.65 3.65,-11.65 2.4,-5.65 5.8,-8.2 2.3,-1.7 6.1,-2.9 4.45,-1.4 7.7,-0.9 3.7,0.6 5.9,3.75 l 7.6,10.95 q 4.15,5.8 7.45,8.9 8.45,7.95 19.6,5.75 4.15,-0.8 9.05,-6.35 l 8.15,-10.75 q 2.45,-3.35 6.7,-8.3 4.35,-5.25 9.65,-3.8 1.35,0.35 4.65,2.05 3.65,1.85 5.1,3.1 1.5,1.25 2.25,2.75 0.6,1.2 1.1,3.35 5.05,22.45 13.7,31.2 8.7,8.9 27.6,10.5"
         id="path190" />
      <path
         style="fill:#0d131a"
         inkscape:connector-curvature="0"
         d="m 164.2,26 q 2.7,-3 8.9,-12.7 3.2,-4.95 5.25,-7.5 2.85,-3.5 5,-4.4 4.95,-1.95 12,-0.35 6.2,1.35 8.45,3.7 l -4,-0.2 q -2.95,-1.25 -6.55,-1.5 -4.5,-0.3 -8.55,1.1 -3.05,1.05 -8.95,10.2 -5.2,8.15 -9.1,12.2 -5.7,6 -10.9,6.25 l -2.35,-1.15 q 5.2,0.6 10.8,-5.65"
         id="path192" />
      <path
         style="fill:#0d131a"
         inkscape:connector-curvature="0"
         d="m 130.95,5.75 -4.15,-1.2 q -3.8,-2.05 -9.1,-2 -5.6,0.1 -11.3,2.5 -1.9,0.8 -3.35,3.95 -0.85,1.85 -2.5,7.15 -2.4,8.05 -4.65,12.8 Q 88.5,44.45 80,54.15 67.65,68.25 51.5,72.6 l -3.4,-0.95 q 16.55,-3.9 29.3,-18.6 8.65,-9.9 16.25,-25.95 1.4,-2.85 2.6,-6.85 L 98,13.8 q 1.5,-5.45 2.7,-7.7 1.55,-2.85 4.2,-3.95 7.25,-3.15 15.95,-1.75 8.45,1.3 10.1,5.35"
         id="path194" />
      <path
         style="fill:#0d131a"
         inkscape:connector-curvature="0"
         d="m 170.1,55.8 q 7.8,-0.65 13.55,-0.1 1.1,0.1 1.95,1.2 0.8,1 1,2.2 1.45,8.2 8.15,17 7.55,10 18.05,15.05 l -1.6,0.8 Q 199.85,86.7 192.35,76.5 186.4,68.35 184.6,60 q -0.3,-1.6 -1.8,-1.7 -5.35,-0.55 -12,0 -5.95,0.45 -11.05,1.65 -0.65,0.15 -0.85,0.45 -0.2,0.35 0.1,1.05 l 3.25,9.05 q 0.45,1.4 0,1.8 -0.5,0.45 -1.75,-0.55 -2.9,-2.4 -7.15,-4.8 -4.45,-2.45 -6.3,-2.6 l -3.4,0.5 q -2.35,0.6 -4.35,1.55 l -0.9,-1.15 q 7.45,-3.75 9,-3.55 1.25,0.1 5.6,2.75 4.65,2.75 7.45,5.25 L 157,61.3 q -0.65,-1.3 -0.35,-2.35 0.25,-1 1.25,-1.25 5.1,-1.25 12.2,-1.9"
         id="path196" />
      <path
         style="fill:#0d131a"
         inkscape:connector-curvature="0"
         d="m 147,62.7 q 7.35,-2.8 10.8,-3.6 l 0.25,1.9 q -4.3,0.7 -9.65,2.75 L 147,62.7"
         id="path198" />
      <path
         style="fill:#0d131a"
         inkscape:connector-curvature="0"
         d="m 155.15,67.15 -1.25,-0.8 q 0.2,-1.3 1.2,-3.55 1,-2.25 1.95,-3.75 l 1.1,1.7 q -2.25,3.65 -3,6.4"
         id="path200" />
      <path
         style="fill:#0d131a"
         inkscape:connector-curvature="0"
         d="m 185.25,59.5 -0.4,-2.1 q 14.05,-0.6 29.1,7.2 13.7,7.1 18.2,15.15 l -1.7,0.9 Q 226.1,73.1 213.3,66.4 198.95,58.95 185.25,59.5"
         id="path202" />
    </g>
    <g
       id="g1369"
       transform="matrix(0.22601767,0,0,0.22601767,211.03605,667.21426)">
      <path
         style="fill:#000000;stroke-width:0.93749994"
         inkscape:connector-curvature="0"
         d="m 163.61248,428.79958 h 265.31249 v 93.74999 c 0,22.03125 -16.875,38.90625 -38.90625,38.90625 H 202.51873 c -22.03125,0 -38.90625,-16.875 -38.90625,-38.90625 z"
         id="base-7" />
      <g
         transform="matrix(0.93749997,0,0,0.93749997,155.64373,288.17458)"
         style="stroke:#000000;stroke-width:38"
         id="g22">
        <g
           transform="translate(150,150)"
           id="svgstar">
          <path
             style="fill:#ffb13b"
             inkscape:connector-curvature="0"
             d="m -84.1487,-15.8513 a 22.4171,22.4171 0 1 0 0,31.7026 H 84.1487 a 22.4171,22.4171 0 1 0 0,-31.7026 z"
             id="svgbar" />
          <use
             height="100%"
             width="100%"
             y="0"
             x="0"
             id="use15"
             transform="rotate(45)"
             xlink:href="#svgbar" />
          <use
             height="100%"
             width="100%"
             y="0"
             x="0"
             id="use17"
             transform="rotate(90)"
             xlink:href="#svgbar" />
          <use
             height="100%"
             width="100%"
             y="0"
             x="0"
             id="use19"
             transform="rotate(135)"
             xlink:href="#svgbar" />
        </g>
      </g>
      <use
         transform="matrix(0.93749997,0,0,0.93749997,155.64373,288.17458)"
         height="100%"
         width="100%"
         y="0"
         x="0"
         id="use24"
         xlink:href="#svgstar" />
      <use
         height="100%"
         width="100%"
         y="0"
         x="0"
         style="opacity:0.85"
         id="use26"
         xlink:href="#base-7"
         transform="translate(3.7305994e-6,-1.4034131e-6)" />
      <g
         transform="matrix(1.7578124,0,0,1.7578124,199.37811,440.85645)"
         id="use28"
         style="fill:#ffffff">
        <path
           inkscape:connector-curvature="0"
           d="M 5.482,31.319 C 2.163,28.001 0.109,23.419 0.109,18.358 0.109,8.232 8.322,0.024 18.443,0.024 c 10.126,0 18.339,8.208 18.339,18.334 h -10.74 c 0,-4.194 -3.404,-7.593 -7.599,-7.593 -4.194,0 -7.593,3.399 -7.593,7.593 0,2.095 0.851,3.993 2.22,5.363 h 0.005 c 1.375,1.38 2.52,1.779 5.368,2.231 v 0 c 5.066,0.527 9.648,2.054 12.966,5.372 v 0 c 3.319,3.319 5.373,7.901 5.373,12.962 0,10.126 -8.213,18.339 -18.339,18.339 C 8.322,62.625 0.109,54.412 0.109,44.286 H 10.85 c 0,4.194 3.399,7.598 7.593,7.598 4.195,0 7.599,-3.404 7.599,-7.598 0,-2.095 -0.851,-3.988 -2.221,-5.363 H 23.816 C 22.441,37.548 20.468,37.074 18.443,36.697 V 36.692 C 13.533,35.939 8.8,34.638 5.482,31.319 Z"
           id="path1335" />
        <path
           inkscape:connector-curvature="0"
           d="M 73.452,0.024 60.482,62.625 H 49.742 L 36.782,0.024 h 10.74 l 7.6,36.663 7.59,-36.663 z"
           id="path1337" />
        <path
           inkscape:connector-curvature="0"
           d="m 91.792,25.952 h 18.334 v 18.334 h 0.005 c 0,10.127 -8.213,18.34 -18.339,18.34 -10.127,0 -18.334,-8.213 -18.334,-18.34 v 0 -25.927 h -0.005 c 0,-10.126 8.212,-18.334 18.339,-18.334 10.121,0 18.334,8.208 18.334,18.334 H 99.385 c 0,-4.19 -3.404,-7.594 -7.593,-7.594 -4.195,0 -7.594,3.404 -7.594,7.594 v 25.927 0 c 0,4.195 3.399,7.594 7.594,7.594 4.189,0 7.588,-3.399 7.593,-7.589 v -0.005 -7.588 h -7.593 z"
           id="path1339" />
      </g>
    </g>
  </g>
</svg>
